# xmcd CD database file
#
# Track frame offsets:
#	150
#	22537
#	34315
#	53300
#
# Disc length: 1008 seconds
#
# Revision: 2
# Processed by: cddbd v1.5PL3 Copyright (c) Steve Scherf et al.
# Submitted via: CDex 1.51
#
DISCID=1d03ee04
DTITLE=ピジョンズミルク - りんご
DYEAR=2002
DGENRE=New Age
TTITLE0=りんご
TTITLE1=ぼくの友達
TTITLE2=名前のない花
TTITLE3=りんご(オリジナルカラオケ)
EXTD=YEAR: 2002
EXTT0=
EXTT1=
EXTT2=
EXTT3=
PLAYORDER=
